<svg width="20" height="21" viewBox="0 0 20 21" fill="none" xmlns="http://www.w3.org/2000/svg">
<path d="M6.03268 1.97363H4.44935C2.62435 1.97363 1.66602 2.93197 1.66602 4.74863V6.33197C1.66602 8.14863 2.62435 9.10697 4.44102 9.10697H6.02435C7.84102 9.10697 8.79935 8.14863 8.79935 6.33197V4.74863C8.80768 2.93197 7.84935 1.97363 6.03268 1.97363Z" fill="white"/>
<path d="M15.5595 1.97363H13.9762C12.1595 1.97363 11.2012 2.93197 11.2012 4.74863V6.33197C11.2012 8.14863 12.1595 9.10697 13.9762 9.10697H15.5595C17.3762 9.10697 18.3345 8.14863 18.3345 6.33197V4.74863C18.3345 2.93197 17.3762 1.97363 15.5595 1.97363Z" fill="white"/>
<path d="M15.5595 11.498H13.9762C12.1595 11.498 11.2012 12.4564 11.2012 14.273V15.8564C11.2012 17.673 12.1595 18.6314 13.9762 18.6314H15.5595C17.3762 18.6314 18.3345 17.673 18.3345 15.8564V14.273C18.3345 12.4564 17.3762 11.498 15.5595 11.498Z" fill="white"/>
<path d="M6.03268 11.498H4.44935C2.62435 11.498 1.66602 12.4564 1.66602 14.273V15.8564C1.66602 17.6814 2.62435 18.6397 4.44102 18.6397H6.02435C7.84102 18.6397 8.79935 17.6814 8.79935 15.8647V14.2814C8.80768 12.4564 7.84935 11.498 6.03268 11.498Z" fill="white"/>
</svg>
